<svg id="svg" version="1.1" width="1000" height="1000" xmlns="http://www.w3.org/2000/svg" xmlns:xlink="http://www.w3.org/1999/xlink" ><g id="svgg"><path id="path0" d="M190.600 59.867 C 182.373 60.878,167.617 64.831,166.400 66.350 C 166.290 66.488,165.930 66.648,165.600 66.707 C 164.501 66.903,158.400 70.095,158.400 70.474 C 158.400 70.679,158.220 70.736,158.000 70.600 C 157.780 70.464,157.600 70.554,157.600 70.800 C 157.600 71.046,157.447 71.153,157.261 71.037 C 157.074 70.922,156.553 71.171,156.103 71.590 C 155.653 72.009,155.180 72.247,155.052 72.119 C 154.924 71.990,154.706 72.180,154.568 72.540 C 154.429 72.901,154.154 73.095,153.955 72.972 C 153.757 72.850,153.487 73.030,153.355 73.372 C 153.224 73.715,152.954 73.895,152.755 73.772 C 152.557 73.650,152.287 73.830,152.155 74.172 C 152.024 74.515,151.754 74.695,151.555 74.572 C 151.357 74.450,151.087 74.630,150.955 74.972 C 150.824 75.315,150.567 75.503,150.385 75.391 C 150.204 75.279,149.801 75.548,149.491 75.991 C 149.182 76.433,148.824 76.690,148.696 76.563 C 148.568 76.435,148.160 76.795,147.788 77.362 C 147.417 77.929,146.967 78.303,146.788 78.193 C 146.610 78.083,146.073 78.489,145.596 79.096 C 145.118 79.703,144.606 80.200,144.457 80.200 C 144.308 80.200,142.119 82.261,139.593 84.780 C 137.067 87.298,135.270 89.220,135.600 89.051 C 135.930 88.881,135.707 89.165,135.105 89.682 C 134.323 90.353,133.079 90.768,130.749 91.135 C 127.506 91.645,118.396 94.215,118.005 94.730 C 117.892 94.879,117.440 95.061,117.000 95.137 C 116.560 95.212,116.140 95.438,116.066 95.639 C 115.992 95.840,115.767 95.903,115.566 95.779 C 115.365 95.655,115.200 95.713,115.200 95.910 C 115.200 96.106,114.975 96.267,114.700 96.267 C 113.934 96.267,108.800 98.907,108.800 99.301 C 108.800 99.491,108.627 99.540,108.415 99.409 C 108.203 99.278,107.663 99.537,107.215 99.985 C 106.767 100.433,106.265 100.799,106.100 100.797 C 105.935 100.795,105.500 101.050,105.134 101.364 C 104.767 101.678,104.397 101.864,104.311 101.778 C 104.225 101.692,103.580 102.146,102.877 102.788 C 102.175 103.430,101.594 103.830,101.587 103.677 C 101.579 103.525,101.242 103.797,100.836 104.283 C 100.431 104.769,100.007 105.074,99.895 104.962 C 99.783 104.850,99.294 105.262,98.809 105.879 C 98.324 106.496,97.809 107.003,97.664 107.007 C 97.288 107.017,89.400 114.915,89.400 115.281 C 89.400 115.448,88.992 115.870,88.493 116.220 C 87.995 116.569,87.685 117.013,87.805 117.207 C 87.924 117.401,87.652 117.758,87.200 118.000 C 86.748 118.242,86.478 118.602,86.600 118.800 C 86.722 118.998,86.452 119.358,86.000 119.600 C 85.548 119.842,85.272 120.192,85.386 120.378 C 85.501 120.564,85.315 120.824,84.972 120.955 C 84.630 121.087,84.450 121.357,84.572 121.555 C 84.695 121.754,84.501 122.029,84.140 122.168 C 83.780 122.306,83.598 122.532,83.737 122.670 C 83.875 122.808,83.730 123.119,83.416 123.360 C 83.101 123.602,82.789 124.063,82.722 124.384 C 82.655 124.706,82.291 125.318,81.914 125.745 C 81.536 126.172,81.322 126.674,81.437 126.861 C 81.553 127.047,81.446 127.200,81.200 127.200 C 80.954 127.200,80.864 127.380,81.000 127.600 C 81.136 127.820,81.046 128.000,80.800 128.000 C 80.554 128.000,80.464 128.180,80.600 128.400 C 80.736 128.620,80.646 128.800,80.400 128.800 C 80.154 128.800,80.064 128.980,80.200 129.200 C 80.336 129.420,80.246 129.600,80.000 129.600 C 79.754 129.600,79.664 129.780,79.800 130.000 C 79.936 130.220,79.846 130.400,79.600 130.400 C 79.354 130.400,79.264 130.580,79.400 130.800 C 79.536 131.020,79.480 131.200,79.276 131.200 C 78.751 131.200,76.087 138.310,74.971 142.693 C 71.995 154.373,72.099 167.249,75.264 178.800 C 76.380 182.875,78.821 189.200,79.276 189.200 C 79.480 189.200,79.536 189.380,79.400 189.600 C 79.264 189.820,79.354 190.000,79.600 190.000 C 79.846 190.000,79.945 190.165,79.820 190.368 C 79.695 190.570,79.856 190.999,80.177 191.320 C 80.499 191.642,80.650 192.016,80.514 192.152 C 80.378 192.289,80.487 192.400,80.757 192.400 C 81.027 192.400,81.136 192.580,81.000 192.800 C 80.864 193.020,80.954 193.200,81.200 193.200 C 81.446 193.200,81.553 193.353,81.437 193.539 C 81.322 193.726,81.626 194.307,82.114 194.830 C 82.601 195.353,82.954 195.875,82.897 195.991 C 82.840 196.106,83.050 196.500,83.364 196.866 C 83.678 197.233,83.833 197.633,83.710 197.757 C 83.586 197.880,83.780 198.094,84.140 198.232 C 84.501 198.371,84.695 198.646,84.572 198.845 C 84.450 199.043,84.630 199.313,84.972 199.445 C 85.315 199.576,85.503 199.833,85.391 200.015 C 85.279 200.196,85.590 200.628,86.082 200.973 C 86.575 201.318,86.803 201.606,86.589 201.613 C 86.375 201.621,86.597 201.958,87.083 202.364 C 87.569 202.769,87.874 203.193,87.762 203.305 C 87.650 203.417,87.984 203.844,88.506 204.254 C 89.027 204.664,89.466 205.156,89.481 205.346 C 89.524 205.894,96.511 212.779,96.826 212.584 C 96.983 212.487,96.602 214.431,95.980 216.904 C 92.101 232.338,92.907 248.403,98.282 262.800 C 99.062 264.890,99.903 266.732,100.150 266.894 C 100.398 267.056,100.462 267.191,100.294 267.194 C 99.910 267.202,102.373 272.152,102.852 272.334 C 103.046 272.408,103.103 272.633,102.979 272.834 C 102.855 273.035,102.954 273.200,103.200 273.200 C 103.446 273.200,103.553 273.353,103.437 273.539 C 103.322 273.726,103.547 274.221,103.936 274.639 C 104.326 275.058,104.635 275.529,104.622 275.687 C 104.610 275.845,104.900 276.325,105.267 276.753 C 105.634 277.182,105.833 277.633,105.710 277.757 C 105.586 277.880,105.780 278.094,106.140 278.232 C 106.501 278.371,106.695 278.646,106.572 278.845 C 106.450 279.043,106.631 279.314,106.975 279.446 C 107.319 279.578,107.600 279.942,107.600 280.255 C 107.600 280.569,107.869 280.928,108.198 281.054 C 108.526 281.181,108.703 281.433,108.591 281.615 C 108.479 281.796,108.748 282.199,109.191 282.509 C 109.633 282.818,109.897 283.170,109.776 283.290 C 109.656 283.410,110.062 283.906,110.679 284.391 C 111.296 284.876,111.800 285.394,111.800 285.543 C 111.800 285.885,120.109 294.180,120.464 294.191 C 120.609 294.196,121.124 294.704,121.609 295.321 C 122.094 295.938,122.583 296.350,122.695 296.238 C 122.807 296.126,123.231 296.431,123.636 296.917 C 124.042 297.403,124.379 297.625,124.387 297.411 C 124.394 297.197,124.682 297.425,125.027 297.918 C 125.372 298.410,125.804 298.721,125.985 298.609 C 126.167 298.497,126.424 298.685,126.555 299.028 C 126.687 299.370,126.957 299.550,127.155 299.428 C 127.354 299.305,127.629 299.499,127.768 299.860 C 127.906 300.220,128.132 300.402,128.270 300.263 C 128.408 300.125,128.719 300.270,128.960 300.584 C 129.202 300.899,129.655 301.211,129.967 301.278 C 130.278 301.345,130.870 301.722,131.281 302.115 C 131.693 302.508,132.203 302.722,132.415 302.591 C 132.627 302.460,132.800 302.554,132.800 302.800 C 132.800 303.046,132.965 303.145,133.166 303.021 C 133.367 302.897,133.592 302.954,133.666 303.148 C 133.866 303.673,138.664 306.003,138.952 305.715 C 139.088 305.578,139.200 305.657,139.200 305.890 C 139.200 306.288,140.692 306.862,141.261 306.683 C 141.405 306.637,141.995 307.140,142.573 307.800 C 144.051 309.490,144.248 309.762,144.222 310.087 C 144.210 310.245,144.500 310.725,144.867 311.153 C 145.234 311.582,145.433 312.033,145.310 312.157 C 145.186 312.280,145.380 312.494,145.740 312.632 C 146.101 312.771,146.295 313.046,146.172 313.245 C 146.050 313.443,146.230 313.713,146.572 313.845 C 146.915 313.976,147.103 314.233,146.991 314.415 C 146.879 314.596,147.148 314.999,147.591 315.309 C 148.033 315.618,148.289 315.978,148.159 316.108 C 148.028 316.238,148.300 316.580,148.761 316.869 C 149.222 317.157,149.597 317.574,149.594 317.796 C 149.590 318.018,150.355 318.890,151.294 319.733 C 152.232 320.576,152.730 321.135,152.400 320.975 C 152.070 320.815,152.602 321.520,153.583 322.542 C 155.416 324.451,155.842 324.772,155.386 323.900 C 155.242 323.625,155.945 324.300,156.947 325.400 C 157.949 326.500,158.776 327.245,158.785 327.056 C 158.793 326.866,159.154 327.136,159.587 327.656 C 160.019 328.175,160.379 328.425,160.387 328.211 C 160.394 327.997,160.682 328.225,161.027 328.718 C 161.372 329.210,161.804 329.521,161.985 329.409 C 162.167 329.297,162.424 329.485,162.555 329.828 C 162.687 330.170,162.957 330.350,163.155 330.228 C 163.354 330.105,163.629 330.299,163.768 330.660 C 163.906 331.020,164.120 331.214,164.243 331.091 C 164.366 330.967,164.818 331.218,165.248 331.648 C 165.678 332.078,166.203 332.322,166.415 332.191 C 166.627 332.060,166.800 332.105,166.800 332.290 C 166.800 332.771,169.036 334.030,169.344 333.723 C 169.485 333.582,169.600 333.687,169.600 333.957 C 169.600 334.227,169.780 334.336,170.000 334.200 C 170.220 334.064,170.400 334.130,170.400 334.346 C 170.400 335.563,183.423 339.572,190.094 340.409 C 196.213 341.176,212.770 340.709,217.400 339.638 C 221.818 338.616,227.200 336.787,227.200 336.307 C 227.200 336.112,227.347 336.044,227.527 336.155 C 227.981 336.435,234.400 333.267,234.400 332.762 C 234.400 332.537,234.553 332.447,234.739 332.563 C 234.926 332.678,235.447 332.429,235.897 332.010 C 236.347 331.591,236.820 331.353,236.948 331.481 C 237.076 331.610,237.294 331.420,237.432 331.060 C 237.571 330.699,237.846 330.505,238.045 330.628 C 238.243 330.750,238.514 330.569,238.646 330.225 C 238.778 329.881,239.142 329.600,239.455 329.600 C 239.769 329.600,240.128 329.331,240.254 329.002 C 240.381 328.674,240.637 328.499,240.824 328.615 C 241.012 328.731,241.462 328.371,241.826 327.816 C 242.190 327.261,242.634 326.897,242.813 327.008 C 242.992 327.119,243.803 326.399,244.614 325.409 C 245.426 324.418,246.222 323.690,246.384 323.790 C 246.749 324.016,248.892 321.826,248.595 321.529 C 248.477 321.410,249.196 320.644,250.195 319.826 C 251.193 319.008,251.919 318.192,251.808 318.013 C 251.697 317.834,252.071 317.383,252.638 317.012 C 253.205 316.640,253.565 316.232,253.437 316.104 C 253.310 315.976,253.567 315.618,254.009 315.309 C 254.452 314.999,254.721 314.596,254.609 314.415 C 254.497 314.233,254.699 313.971,255.060 313.832 C 255.420 313.694,255.618 313.484,255.499 313.366 C 255.381 313.247,255.712 312.689,256.234 312.125 C 256.757 311.561,257.099 310.961,256.995 310.792 C 256.890 310.622,257.099 310.371,257.460 310.232 C 257.820 310.094,258.012 309.879,257.887 309.754 C 257.559 309.425,259.632 307.200,260.266 307.200 C 260.560 307.200,260.800 307.009,260.800 306.776 C 260.800 306.543,260.980 306.464,261.200 306.600 C 261.420 306.736,261.600 306.646,261.600 306.400 C 261.600 306.154,261.780 306.064,262.000 306.200 C 262.220 306.336,262.400 306.246,262.400 306.000 C 262.400 305.754,262.565 305.655,262.768 305.780 C 262.970 305.905,263.399 305.744,263.720 305.423 C 264.042 305.101,264.416 304.950,264.552 305.086 C 264.689 305.222,264.800 305.113,264.800 304.843 C 264.800 304.573,264.980 304.464,265.200 304.600 C 265.420 304.736,265.600 304.646,265.600 304.400 C 265.600 304.154,265.780 304.064,266.000 304.200 C 266.220 304.336,266.400 304.246,266.400 304.000 C 266.400 303.754,266.553 303.647,266.739 303.763 C 266.926 303.878,267.463 303.615,267.932 303.178 C 268.401 302.741,268.872 302.432,268.979 302.492 C 269.086 302.551,269.525 302.300,269.953 301.933 C 270.382 301.566,270.833 301.367,270.957 301.490 C 271.080 301.614,271.294 301.420,271.432 301.060 C 271.571 300.699,271.846 300.505,272.045 300.628 C 272.243 300.750,272.513 300.570,272.645 300.228 C 272.776 299.885,273.046 299.705,273.245 299.828 C 273.443 299.950,273.713 299.770,273.845 299.428 C 273.976 299.085,274.233 298.897,274.415 299.009 C 274.596 299.121,275.028 298.810,275.373 298.318 C 275.718 297.825,276.006 297.597,276.013 297.811 C 276.021 298.025,276.401 297.750,276.858 297.200 C 277.316 296.650,277.863 296.200,278.074 296.200 C 278.285 296.200,279.000 295.570,279.662 294.800 C 280.325 294.030,280.738 293.670,280.580 294.000 C 280.421 294.330,281.927 292.993,283.926 291.029 C 285.924 289.064,287.480 287.330,287.383 287.173 C 287.287 287.017,287.848 286.401,288.630 285.804 C 289.412 285.207,289.952 284.619,289.829 284.495 C 289.706 284.372,289.964 284.020,290.403 283.713 C 290.841 283.406,291.200 282.914,291.200 282.620 C 291.200 282.326,291.496 281.972,291.857 281.833 C 292.219 281.695,292.400 281.467,292.260 281.326 C 292.120 281.186,292.367 280.818,292.809 280.509 C 293.252 280.199,293.521 279.796,293.409 279.615 C 293.297 279.433,293.485 279.176,293.828 279.045 C 294.170 278.913,294.350 278.643,294.228 278.445 C 294.105 278.246,294.299 277.971,294.660 277.832 C 295.020 277.694,295.210 277.476,295.081 277.348 C 294.953 277.220,295.191 276.747,295.610 276.297 C 296.029 275.847,296.278 275.326,296.163 275.139 C 296.047 274.953,296.115 274.800,296.312 274.800 C 296.698 274.800,297.786 272.797,297.670 272.300 C 297.631 272.135,297.791 272.000,298.024 272.000 C 298.257 272.000,298.336 271.820,298.200 271.600 C 298.064 271.380,298.154 271.200,298.400 271.200 C 298.646 271.200,298.736 271.020,298.600 270.800 C 298.464 270.580,298.554 270.400,298.800 270.400 C 299.046 270.400,299.136 270.220,299.000 270.000 C 298.864 269.780,298.954 269.600,299.200 269.600 C 299.446 269.600,299.536 269.420,299.400 269.200 C 299.264 268.980,299.354 268.800,299.600 268.800 C 299.846 268.800,299.945 268.635,299.821 268.434 C 299.697 268.233,299.744 268.008,299.927 267.934 C 300.942 267.524,304.759 256.141,305.941 250.000 C 308.103 238.770,307.798 224.438,305.211 215.609 C 304.814 214.252,304.863 214.158,307.191 211.809 C 308.504 210.484,309.574 209.253,309.569 209.074 C 309.563 208.894,310.028 208.379,310.600 207.928 C 311.173 207.478,311.550 207.017,311.438 206.905 C 311.326 206.793,311.631 206.369,312.117 205.964 C 312.603 205.558,312.825 205.221,312.611 205.213 C 312.397 205.206,312.625 204.918,313.118 204.573 C 313.610 204.228,313.921 203.796,313.809 203.615 C 313.697 203.433,313.885 203.176,314.228 203.045 C 314.570 202.913,314.750 202.643,314.628 202.445 C 314.505 202.246,314.699 201.971,315.060 201.832 C 315.420 201.694,315.602 201.468,315.463 201.330 C 315.325 201.192,315.470 200.881,315.784 200.640 C 316.099 200.398,316.411 199.937,316.478 199.616 C 316.545 199.294,316.909 198.682,317.286 198.255 C 317.664 197.828,317.878 197.326,317.763 197.139 C 317.647 196.953,317.754 196.800,318.000 196.800 C 318.246 196.800,318.336 196.620,318.200 196.400 C 318.064 196.180,318.113 196.000,318.308 196.000 C 318.707 196.000,320.655 192.019,320.500 191.521 C 320.445 191.344,320.560 191.200,320.757 191.200 C 321.089 191.200,321.586 189.847,321.548 189.045 C 321.539 188.849,321.706 188.579,321.918 188.445 C 324.237 186.976,327.481 168.304,327.069 158.800 C 326.653 149.210,322.603 132.562,320.347 131.168 C 320.119 131.026,319.966 130.788,320.007 130.638 C 320.146 130.139,319.109 128.000,318.728 128.000 C 318.522 128.000,318.464 127.820,318.600 127.600 C 318.736 127.380,318.627 127.200,318.357 127.200 C 318.087 127.200,317.982 127.085,318.123 126.944 C 318.430 126.636,317.171 124.400,316.690 124.400 C 316.505 124.400,316.447 124.247,316.563 124.061 C 316.678 123.874,316.429 123.353,316.010 122.903 C 315.591 122.453,315.353 121.980,315.481 121.852 C 315.610 121.724,315.420 121.506,315.060 121.368 C 314.699 121.229,314.505 120.954,314.628 120.755 C 314.750 120.557,314.569 120.286,314.225 120.154 C 313.881 120.022,313.600 119.658,313.600 119.345 C 313.600 119.031,313.331 118.672,313.002 118.546 C 312.674 118.419,312.497 118.167,312.609 117.985 C 312.721 117.804,312.452 117.401,312.009 117.091 C 311.567 116.782,311.303 116.430,311.424 116.310 C 311.544 116.190,311.138 115.694,310.521 115.209 C 309.904 114.724,309.400 114.197,309.400 114.038 C 309.400 113.642,301.531 105.800,301.133 105.800 C 300.958 105.800,300.530 105.392,300.180 104.893 C 299.831 104.395,299.397 104.078,299.216 104.190 C 299.036 104.302,298.590 103.939,298.226 103.384 C 297.862 102.829,297.412 102.469,297.224 102.585 C 297.037 102.701,296.776 102.515,296.645 102.172 C 296.513 101.830,296.224 101.661,296.003 101.798 C 295.781 101.935,295.600 101.881,295.600 101.677 C 295.600 101.473,294.880 100.830,294.000 100.247 C 293.120 99.665,292.400 99.281,292.400 99.394 C 292.400 99.507,292.033 99.233,291.585 98.785 C 291.137 98.337,290.597 98.078,290.385 98.209 C 290.173 98.340,290.000 98.262,290.000 98.035 C 290.000 97.644,284.070 94.587,282.800 94.324 C 282.470 94.256,282.094 94.056,281.964 93.880 C 281.834 93.704,281.339 93.531,280.864 93.495 C 280.389 93.459,280.000 93.321,280.000 93.188 C 280.000 92.932,275.822 91.511,274.793 91.417 C 274.459 91.387,274.009 91.256,273.793 91.126 C 273.384 90.880,268.144 89.698,266.400 89.458 C 265.850 89.382,265.399 89.158,265.398 88.960 C 265.397 88.551,256.742 79.804,256.336 79.802 C 256.191 79.801,255.682 79.303,255.204 78.696 C 254.727 78.089,254.190 77.683,254.012 77.793 C 253.833 77.903,253.383 77.529,253.012 76.962 C 252.640 76.395,252.232 76.035,252.104 76.163 C 251.976 76.290,251.618 76.033,251.309 75.591 C 250.999 75.148,250.596 74.879,250.415 74.991 C 250.233 75.103,249.976 74.915,249.845 74.572 C 249.713 74.230,249.424 74.061,249.203 74.198 C 248.981 74.335,248.800 74.281,248.800 74.077 C 248.800 73.629,245.605 71.459,245.588 71.894 C 245.581 72.062,245.390 71.881,245.163 71.492 C 244.936 71.102,244.582 70.888,244.375 71.015 C 244.169 71.143,244.000 71.095,244.000 70.910 C 244.000 70.429,241.764 69.170,241.456 69.477 C 241.315 69.618,241.200 69.513,241.200 69.243 C 241.200 68.973,241.035 68.855,240.834 68.979 C 240.633 69.103,240.408 69.046,240.334 68.852 C 240.152 68.373,235.202 65.910,235.194 66.294 C 235.191 66.462,235.056 66.398,234.894 66.150 C 233.975 64.744,221.595 61.125,214.535 60.200 C 210.352 59.651,194.186 59.427,190.600 59.867 M194.000 200.190 L 194.000 328.780 192.900 328.602 C 192.295 328.504,190.450 328.199,188.800 327.924 C 187.150 327.649,185.620 327.402,185.400 327.374 C 185.180 327.347,184.490 327.115,183.866 326.860 C 183.243 326.604,182.580 326.489,182.394 326.604 C 182.208 326.719,181.940 326.627,181.800 326.400 C 181.660 326.173,181.377 326.091,181.172 326.217 C 180.968 326.344,180.800 326.285,180.800 326.087 C 180.800 325.732,177.683 324.586,177.100 324.727 C 176.935 324.767,176.800 324.609,176.800 324.376 C 176.800 324.143,176.620 324.064,176.400 324.200 C 176.180 324.336,176.000 324.269,176.000 324.051 C 176.000 323.653,174.463 322.972,173.900 323.121 C 173.735 323.164,173.600 322.990,173.600 322.733 C 173.600 322.477,173.491 322.376,173.357 322.509 C 173.224 322.643,172.747 322.409,172.297 321.990 C 171.847 321.571,171.345 321.310,171.181 321.412 C 171.018 321.513,170.776 321.315,170.645 320.972 C 170.513 320.630,170.243 320.450,170.045 320.572 C 169.846 320.695,169.576 320.515,169.445 320.172 C 169.313 319.830,169.043 319.650,168.845 319.772 C 168.646 319.895,168.381 319.726,168.254 319.398 C 168.128 319.069,167.814 318.800,167.557 318.800 C 167.299 318.800,166.858 318.485,166.576 318.100 C 166.295 317.715,165.915 317.389,165.732 317.376 C 165.261 317.343,159.036 311.061,159.123 310.708 C 159.162 310.547,158.748 310.122,158.201 309.764 C 157.654 309.406,157.307 308.951,157.429 308.753 C 157.551 308.556,157.369 308.286,157.025 308.154 C 156.681 308.022,156.400 307.698,156.400 307.433 C 156.400 307.168,156.036 306.560,155.592 306.083 C 155.147 305.606,154.789 305.077,154.795 304.908 C 154.801 304.738,154.537 304.285,154.207 303.900 C 153.878 303.515,153.686 303.200,153.782 303.200 C 153.877 303.200,153.482 302.166,152.904 300.902 C 150.939 296.611,151.151 288.848,153.369 283.833 C 153.916 282.596,154.396 281.452,154.435 281.292 C 154.475 281.131,154.846 280.763,155.260 280.473 C 155.675 280.183,155.893 279.750,155.745 279.511 C 155.597 279.272,155.639 279.164,155.838 279.271 C 156.823 279.801,159.354 280.895,159.751 280.962 C 159.998 281.004,160.609 281.263,161.108 281.538 C 161.608 281.812,162.180 281.936,162.381 281.812 C 162.581 281.688,162.845 281.749,162.968 281.948 C 163.866 283.402,179.454 283.762,182.021 282.389 C 184.549 281.036,186.552 277.477,185.784 275.703 C 185.616 275.316,185.433 274.777,185.376 274.505 C 185.242 273.864,182.936 271.558,182.295 271.424 C 182.023 271.367,181.499 271.190,181.132 271.030 C 180.764 270.870,178.766 270.941,176.690 271.189 C 170.586 271.918,164.758 270.883,161.659 268.520 C 160.891 267.934,160.418 267.713,160.608 268.027 C 160.903 268.516,160.855 268.520,160.281 268.055 C 159.911 267.755,159.700 267.362,159.811 267.182 C 159.922 267.002,159.652 266.601,159.209 266.291 C 158.767 265.982,158.524 265.609,158.669 265.464 C 158.814 265.319,158.693 265.200,158.400 265.200 C 158.107 265.200,157.973 265.094,158.103 264.964 C 158.233 264.834,158.071 263.979,157.743 263.064 C 157.028 261.067,156.873 256.393,157.349 251.178 C 157.656 247.822,157.615 247.273,157.021 246.678 C 156.648 246.305,156.477 246.000,156.641 246.000 C 157.449 246.000,154.856 243.929,153.563 243.542 C 151.963 243.062,149.200 243.379,149.200 244.042 C 149.200 244.265,149.038 244.347,148.840 244.225 C 148.642 244.103,147.941 244.617,147.282 245.368 C 144.270 248.798,144.206 262.325,147.170 269.026 C 147.914 270.706,147.914 270.754,147.174 271.424 C 146.759 271.799,146.510 272.254,146.621 272.433 C 146.732 272.613,146.452 272.958,146.000 273.200 C 145.548 273.442,145.272 273.792,145.386 273.978 C 145.501 274.164,145.301 274.429,144.940 274.568 C 144.580 274.706,144.386 274.920,144.509 275.043 C 144.633 275.166,144.382 275.618,143.952 276.048 C 143.522 276.478,143.278 277.003,143.409 277.215 C 143.540 277.427,143.446 277.600,143.200 277.600 C 142.954 277.600,142.864 277.780,143.000 278.000 C 143.136 278.220,143.069 278.400,142.851 278.400 C 142.498 278.400,142.100 279.229,141.819 280.549 C 141.766 280.797,141.499 281.540,141.226 282.200 C 140.432 284.118,139.614 288.420,139.607 290.718 C 139.599 293.000,139.079 293.316,137.496 292.000 C 137.099 291.670,136.686 291.449,136.579 291.508 C 136.472 291.568,136.025 291.282,135.585 290.872 C 135.146 290.463,134.295 289.874,133.693 289.564 C 133.092 289.254,132.381 288.730,132.113 288.400 C 131.845 288.070,131.620 287.975,131.613 288.189 C 131.606 288.403,131.318 288.175,130.973 287.682 C 130.628 287.190,130.206 286.873,130.036 286.978 C 129.866 287.083,129.334 286.637,128.854 285.987 C 128.374 285.338,127.850 284.843,127.690 284.887 C 127.311 284.992,121.008 278.689,121.113 278.310 C 121.157 278.150,120.662 277.626,120.013 277.146 C 119.363 276.666,118.917 276.134,119.022 275.964 C 119.127 275.794,118.810 275.372,118.318 275.027 C 117.825 274.682,117.597 274.394,117.811 274.387 C 118.025 274.380,117.873 274.127,117.473 273.824 C 117.074 273.521,116.752 273.121,116.759 272.936 C 116.765 272.751,116.418 272.195,115.988 271.700 C 115.557 271.205,115.339 270.794,115.503 270.787 C 115.666 270.780,115.473 270.527,115.073 270.224 C 114.674 269.921,114.334 269.521,114.319 269.336 C 114.261 268.627,113.455 267.200,113.112 267.200 C 112.915 267.200,112.864 267.020,113.000 266.800 C 113.136 266.580,113.046 266.400,112.800 266.400 C 112.554 266.400,112.464 266.220,112.600 266.000 C 112.736 265.780,112.646 265.600,112.400 265.600 C 112.154 265.600,112.064 265.420,112.200 265.200 C 112.336 264.980,112.246 264.800,112.000 264.800 C 111.754 264.800,111.664 264.620,111.800 264.400 C 111.936 264.180,111.846 264.000,111.600 264.000 C 111.354 264.000,111.264 263.820,111.400 263.600 C 111.536 263.380,111.487 263.200,111.290 263.200 C 111.094 263.200,110.918 262.975,110.899 262.700 C 110.879 262.425,110.133 260.175,109.239 257.700 C 103.586 242.035,104.693 222.075,112.022 207.557 C 112.675 206.263,113.162 205.154,113.105 205.093 C 113.047 205.031,113.399 204.553,113.886 204.030 C 114.374 203.507,114.678 202.926,114.563 202.739 C 114.447 202.553,114.549 202.400,114.789 202.400 C 115.029 202.400,115.343 202.085,115.488 201.700 C 115.632 201.315,116.032 200.790,116.375 200.532 C 116.719 200.275,117.010 199.915,117.023 199.732 C 117.054 199.278,122.759 193.693,122.973 193.907 C 123.068 194.001,123.380 193.700,123.669 193.239 C 123.957 192.778,124.385 192.400,124.621 192.400 C 124.856 192.400,125.443 192.033,125.925 191.584 C 126.406 191.136,126.800 190.863,126.800 190.979 C 126.800 191.094,127.385 190.832,128.100 190.396 C 129.964 189.259,130.119 189.346,130.947 192.003 C 131.358 193.322,131.853 194.400,132.047 194.400 C 132.241 194.400,132.364 194.535,132.321 194.700 C 132.172 195.263,132.853 196.800,133.251 196.800 C 133.469 196.800,133.540 196.973,133.409 197.185 C 133.278 197.397,133.522 197.922,133.952 198.352 C 134.382 198.782,134.633 199.234,134.509 199.357 C 134.386 199.480,134.580 199.694,134.940 199.832 C 135.301 199.971,135.495 200.246,135.372 200.445 C 135.250 200.643,135.431 200.914,135.775 201.046 C 136.119 201.178,136.398 201.491,136.396 201.743 C 136.394 201.994,136.979 202.710,137.696 203.334 C 138.413 203.957,138.775 204.352,138.500 204.210 C 137.644 203.770,137.940 204.180,139.659 205.819 C 140.571 206.688,141.189 207.130,141.031 206.800 C 140.874 206.470,141.309 206.830,141.998 207.600 C 142.687 208.370,143.414 208.957,143.613 208.904 C 143.813 208.851,144.171 209.171,144.408 209.615 C 144.646 210.059,144.992 210.328,145.178 210.214 C 145.364 210.099,145.624 210.285,145.755 210.628 C 145.887 210.970,146.157 211.150,146.355 211.028 C 146.554 210.905,146.824 211.085,146.955 211.428 C 147.087 211.770,147.376 211.939,147.597 211.802 C 147.819 211.665,148.000 211.754,148.000 212.000 C 148.000 212.246,148.180 212.336,148.400 212.200 C 148.620 212.064,148.800 212.143,148.800 212.376 C 148.800 212.622,149.709 212.800,150.967 212.800 C 156.065 212.800,158.678 206.651,155.100 203.073 C 154.275 202.248,153.600 201.704,153.600 201.863 C 153.600 202.023,153.336 201.804,153.013 201.376 C 152.690 200.949,152.420 200.755,152.413 200.944 C 152.406 201.134,152.046 200.864,151.613 200.344 C 151.181 199.825,150.821 199.505,150.813 199.633 C 150.792 200.000,145.600 194.708,145.600 194.321 C 145.600 194.131,145.331 193.872,145.002 193.746 C 144.674 193.619,144.487 193.382,144.588 193.219 C 144.690 193.055,144.429 192.553,144.010 192.103 C 143.591 191.653,143.357 191.176,143.491 191.043 C 143.624 190.909,143.523 190.800,143.267 190.800 C 143.010 190.800,142.832 190.665,142.871 190.500 C 142.910 190.335,142.505 188.850,141.971 187.200 C 140.428 182.433,140.581 175.488,142.337 170.600 C 143.048 168.620,143.653 166.775,143.682 166.500 C 143.710 166.225,143.854 166.000,144.002 166.000 C 144.266 166.000,145.335 163.932,145.210 163.664 C 145.175 163.589,145.474 163.279,145.873 162.976 C 146.273 162.673,146.445 162.420,146.256 162.413 C 146.066 162.406,146.336 162.046,146.856 161.613 C 147.375 161.181,147.641 160.821,147.446 160.813 C 147.251 160.806,147.568 160.426,148.150 159.968 C 148.732 159.510,149.104 158.969,148.978 158.765 C 148.852 158.561,149.027 158.288,149.367 158.157 C 150.299 157.800,150.857 155.297,150.391 153.565 C 149.946 151.915,148.507 149.887,148.002 150.199 C 147.819 150.312,147.605 150.214,147.527 149.981 C 147.449 149.747,147.119 149.503,146.793 149.439 C 146.467 149.374,145.904 149.192,145.542 149.034 C 144.731 148.680,141.600 149.478,141.600 150.039 C 141.600 150.264,141.444 150.351,141.253 150.233 C 141.063 150.115,140.568 150.406,140.153 150.878 C 139.642 151.461,139.593 151.642,140.000 151.440 C 140.330 151.276,140.060 151.603,139.400 152.166 C 138.740 152.729,138.200 153.364,138.200 153.578 C 138.200 153.791,137.840 154.238,137.400 154.570 C 136.960 154.903,136.726 155.180,136.881 155.187 C 137.035 155.194,136.719 155.678,136.177 156.263 C 135.635 156.847,135.269 157.402,135.363 157.496 C 135.457 157.590,135.182 158.018,134.752 158.448 C 134.322 158.878,134.078 159.403,134.209 159.615 C 134.340 159.827,134.246 160.000,134.000 160.000 C 133.754 160.000,133.655 160.165,133.779 160.366 C 133.903 160.567,133.837 160.792,133.632 160.866 C 133.428 160.940,133.202 161.266,133.130 161.590 C 133.059 161.915,132.804 162.394,132.565 162.654 C 131.786 163.501,129.982 169.579,129.330 173.554 C 128.793 176.822,128.573 177.447,127.939 177.495 C 126.816 177.579,121.200 180.366,121.200 180.839 C 121.200 181.063,121.027 181.140,120.815 181.009 C 120.603 180.878,120.078 181.122,119.648 181.552 C 119.218 181.982,118.766 182.233,118.643 182.109 C 118.520 181.986,118.305 182.181,118.167 182.543 C 118.028 182.904,117.670 183.200,117.371 183.200 C 117.073 183.200,116.636 183.558,116.402 183.996 C 116.168 184.434,115.802 184.749,115.589 184.696 C 115.376 184.643,114.551 185.320,113.755 186.200 C 112.959 187.080,112.531 187.485,112.803 187.100 C 113.642 185.913,113.038 186.321,111.381 188.059 C 110.512 188.971,110.070 189.586,110.400 189.426 C 110.730 189.265,110.190 189.864,109.200 190.755 C 108.210 191.647,107.555 192.381,107.744 192.388 C 107.934 192.395,107.664 192.754,107.144 193.187 C 106.625 193.619,106.375 193.979,106.589 193.987 C 106.803 193.994,106.575 194.282,106.082 194.627 C 105.590 194.972,105.279 195.404,105.391 195.585 C 105.503 195.767,105.301 196.029,104.940 196.168 C 104.580 196.306,104.390 196.524,104.519 196.652 C 104.647 196.780,104.409 197.253,103.990 197.703 C 103.571 198.153,103.289 198.629,103.364 198.761 C 103.439 198.892,103.020 199.501,102.433 200.114 L 101.365 201.228 100.383 200.149 C 99.842 199.556,99.670 199.206,100.000 199.371 C 100.330 199.536,99.880 198.982,99.000 198.139 C 98.120 197.296,97.400 196.455,97.400 196.271 C 97.400 196.086,97.085 195.705,96.700 195.424 C 96.315 195.142,96.000 194.701,96.000 194.443 C 96.000 194.186,95.731 193.872,95.402 193.746 C 95.074 193.619,94.905 193.354,95.028 193.155 C 95.150 192.957,94.970 192.687,94.628 192.555 C 94.285 192.424,94.105 192.154,94.228 191.955 C 94.350 191.757,94.170 191.487,93.828 191.355 C 93.485 191.224,93.287 190.982,93.388 190.819 C 93.490 190.655,93.253 190.179,92.864 189.761 C 92.474 189.342,92.119 188.866,92.075 188.701 C 91.939 188.198,89.413 183.013,89.200 182.800 C 89.090 182.690,88.937 182.240,88.860 181.800 C 88.783 181.360,88.513 180.868,88.260 180.706 C 88.007 180.544,87.927 180.409,88.082 180.406 C 88.237 180.403,88.089 179.635,87.751 178.700 C 83.469 166.829,83.897 151.456,88.865 138.738 C 89.582 136.902,90.130 135.265,90.084 135.100 C 90.038 134.935,90.191 134.800,90.424 134.800 C 90.657 134.800,90.736 134.620,90.600 134.400 C 90.464 134.180,90.554 134.000,90.800 134.000 C 91.046 134.000,91.136 133.820,91.000 133.600 C 90.864 133.380,90.915 133.200,91.112 133.200 C 91.440 133.200,92.653 131.012,92.337 130.991 C 92.262 130.985,92.599 130.553,93.086 130.030 C 93.574 129.507,93.890 128.945,93.788 128.781 C 93.687 128.618,93.885 128.376,94.228 128.245 C 94.570 128.113,94.750 127.843,94.628 127.645 C 94.505 127.446,94.699 127.171,95.060 127.032 C 95.420 126.894,95.602 126.668,95.463 126.530 C 95.325 126.392,95.525 126.051,95.906 125.772 C 96.288 125.493,96.600 125.100,96.600 124.899 C 96.600 124.698,97.140 124.039,97.800 123.435 C 98.460 122.830,98.747 122.468,98.438 122.630 C 98.129 122.792,99.479 121.338,101.438 119.399 C 103.397 117.461,105.125 115.899,105.277 115.930 C 105.429 115.960,105.924 115.514,106.377 114.938 C 106.830 114.363,107.206 114.051,107.213 114.246 C 107.221 114.441,107.581 114.175,108.013 113.656 C 108.446 113.136,108.806 112.866,108.813 113.056 C 108.821 113.245,109.201 112.950,109.658 112.400 C 110.116 111.850,110.562 111.449,110.649 111.508 C 110.964 111.722,113.200 110.370,113.200 109.966 C 113.200 109.739,113.380 109.664,113.600 109.800 C 113.820 109.936,114.000 109.857,114.000 109.624 C 114.000 109.391,114.135 109.233,114.300 109.274 C 114.686 109.369,119.322 107.107,119.645 106.666 C 119.779 106.482,120.007 106.355,120.151 106.384 C 120.294 106.413,122.434 105.774,124.906 104.964 C 130.129 103.253,134.354 102.812,137.661 103.632 C 138.838 103.924,139.935 104.126,140.100 104.081 C 140.265 104.037,140.400 104.191,140.400 104.424 C 140.400 104.657,140.580 104.736,140.800 104.600 C 141.020 104.464,141.200 104.554,141.200 104.800 C 141.200 105.046,141.361 105.148,141.558 105.026 C 141.755 104.904,142.029 105.099,142.168 105.460 C 142.306 105.820,142.528 106.005,142.663 105.871 C 142.797 105.737,143.253 106.068,143.676 106.606 C 144.100 107.144,144.661 107.543,144.923 107.492 C 145.185 107.442,145.358 107.615,145.308 107.877 C 145.257 108.139,145.686 108.724,146.262 109.177 C 146.837 109.630,147.149 110.006,146.954 110.013 C 146.759 110.020,146.927 110.273,147.327 110.576 C 147.726 110.879,148.038 111.235,148.019 111.368 C 147.999 111.500,148.275 112.171,148.630 112.859 C 148.986 113.546,149.695 115.220,150.206 116.577 C 151.103 118.960,153.045 121.556,154.093 121.774 C 154.372 121.832,154.916 122.016,155.303 122.184 C 156.251 122.594,158.631 122.112,159.387 121.356 C 159.724 121.019,160.000 120.868,160.000 121.020 C 160.000 121.173,160.274 121.070,160.610 120.792 C 160.945 120.514,161.128 120.194,161.016 120.083 C 160.904 119.971,161.098 119.670,161.447 119.415 C 162.289 118.800,162.598 115.707,161.968 114.200 C 161.693 113.540,161.451 112.910,161.432 112.800 C 161.235 111.669,160.192 109.200,159.912 109.200 C 159.715 109.200,159.664 109.020,159.800 108.800 C 159.936 108.580,159.846 108.400,159.600 108.400 C 159.354 108.400,159.264 108.220,159.400 108.000 C 159.536 107.780,159.427 107.600,159.157 107.600 C 158.887 107.600,158.782 107.485,158.923 107.344 C 159.230 107.036,157.971 104.800,157.490 104.800 C 157.305 104.800,157.265 104.619,157.402 104.397 C 157.539 104.176,157.369 103.886,157.025 103.754 C 156.681 103.622,156.400 103.270,156.400 102.971 C 156.400 102.673,156.025 102.227,155.566 101.982 C 155.107 101.736,154.841 101.426,154.975 101.292 C 155.300 100.967,151.955 97.581,151.554 97.829 C 151.381 97.935,151.037 97.642,150.788 97.177 C 150.539 96.712,150.249 96.418,150.143 96.524 C 150.037 96.630,149.489 96.288,148.925 95.766 C 148.361 95.243,147.761 94.901,147.592 95.005 C 146.151 95.895,147.068 93.548,148.835 91.822 C 149.974 90.710,150.775 90.070,150.617 90.400 C 150.458 90.730,151.019 90.280,151.862 89.400 C 152.705 88.520,153.528 87.844,153.690 87.897 C 153.852 87.951,154.278 87.548,154.636 87.001 C 154.994 86.454,155.436 86.098,155.616 86.210 C 155.797 86.322,156.199 86.052,156.509 85.609 C 156.818 85.167,157.186 84.920,157.326 85.060 C 157.467 85.200,157.694 85.020,157.832 84.660 C 157.971 84.299,158.246 84.105,158.445 84.228 C 158.643 84.350,158.913 84.170,159.045 83.828 C 159.176 83.485,159.446 83.305,159.645 83.428 C 159.843 83.550,160.113 83.370,160.245 83.028 C 160.376 82.685,160.618 82.487,160.781 82.588 C 160.945 82.690,161.463 82.415,161.932 81.978 C 162.401 81.541,162.923 81.189,163.092 81.195 C 163.262 81.201,163.700 80.950,164.066 80.636 C 164.433 80.322,164.838 80.171,164.966 80.300 C 165.095 80.428,165.200 80.313,165.200 80.043 C 165.200 79.773,165.380 79.664,165.600 79.800 C 165.820 79.936,166.000 79.846,166.000 79.600 C 166.000 79.354,166.180 79.264,166.400 79.400 C 166.620 79.536,166.800 79.446,166.800 79.200 C 166.800 78.954,166.980 78.864,167.200 79.000 C 167.420 79.136,167.600 79.046,167.600 78.800 C 167.600 78.554,167.780 78.464,168.000 78.600 C 168.220 78.736,168.400 78.627,168.400 78.357 C 168.400 78.087,168.505 77.972,168.634 78.101 C 168.835 78.301,172.133 77.077,175.600 75.516 C 176.150 75.268,177.012 74.998,177.515 74.917 C 178.019 74.835,178.919 74.570,179.515 74.328 C 180.112 74.085,180.870 73.846,181.200 73.797 C 181.530 73.748,183.240 73.409,185.000 73.045 C 187.734 72.479,191.745 71.820,193.500 71.649 C 193.899 71.610,194.000 97.559,194.000 200.190 M215.000 72.189 C 216.980 72.511,219.492 73.044,220.581 73.373 C 221.671 73.702,222.645 73.889,222.745 73.789 C 222.845 73.689,223.137 73.782,223.395 73.996 C 223.652 74.209,224.299 74.464,224.831 74.562 C 225.364 74.660,225.845 74.754,225.900 74.770 C 225.955 74.787,226.115 74.785,226.255 74.766 C 226.396 74.747,226.637 74.936,226.791 75.186 C 226.946 75.436,227.461 75.669,227.936 75.705 C 228.411 75.741,228.800 75.892,228.800 76.042 C 228.800 76.326,230.781 76.979,231.300 76.866 C 231.465 76.830,231.600 76.991,231.600 77.224 C 231.600 77.457,231.780 77.536,232.000 77.400 C 232.220 77.264,232.400 77.354,232.400 77.600 C 232.400 77.846,232.580 77.936,232.800 77.800 C 233.020 77.664,233.200 77.754,233.200 78.000 C 233.200 78.246,233.380 78.336,233.600 78.200 C 233.820 78.064,234.000 78.154,234.000 78.400 C 234.000 78.646,234.180 78.736,234.400 78.600 C 234.620 78.464,234.800 78.554,234.800 78.800 C 234.800 79.046,234.980 79.136,235.200 79.000 C 235.420 78.864,235.600 78.905,235.600 79.090 C 235.600 79.571,237.836 80.830,238.144 80.523 C 238.285 80.382,238.400 80.472,238.400 80.723 C 238.400 81.160,240.502 82.464,241.060 82.372 C 241.207 82.348,241.488 82.614,241.684 82.964 C 241.880 83.314,242.282 83.600,242.577 83.600 C 242.873 83.600,243.228 83.896,243.367 84.257 C 243.505 84.619,243.733 84.800,243.874 84.660 C 244.014 84.520,244.382 84.767,244.691 85.209 C 245.001 85.652,245.403 85.922,245.584 85.810 C 245.764 85.698,246.206 86.054,246.564 86.601 C 246.922 87.148,247.347 87.552,247.508 87.500 C 247.668 87.448,248.582 88.214,249.537 89.203 C 250.492 90.191,251.157 90.775,251.013 90.500 C 250.549 89.609,250.988 89.959,253.214 92.256 C 254.416 93.497,255.130 94.381,254.800 94.219 C 254.470 94.058,255.009 94.708,255.997 95.663 C 256.986 96.618,257.759 97.509,257.716 97.643 C 257.673 97.777,258.169 98.396,258.819 99.018 C 259.469 99.640,260.003 99.981,260.006 99.775 C 260.009 99.569,260.157 99.628,260.333 99.906 C 260.510 100.184,262.152 100.675,263.982 100.997 C 265.813 101.319,268.411 101.877,269.755 102.238 C 271.100 102.598,272.560 102.947,273.000 103.013 C 273.440 103.079,273.890 103.170,274.000 103.214 C 274.110 103.258,274.335 103.273,274.500 103.247 C 274.665 103.221,274.800 103.352,274.800 103.537 C 274.800 103.851,277.678 104.888,278.251 104.781 C 278.394 104.754,278.621 104.891,278.755 105.085 C 279.076 105.547,283.711 107.806,284.100 107.690 C 284.265 107.640,284.400 107.791,284.400 108.024 C 284.400 108.257,284.561 108.348,284.758 108.226 C 284.955 108.104,285.229 108.299,285.368 108.660 C 285.506 109.020,285.724 109.210,285.852 109.081 C 285.980 108.953,286.453 109.191,286.903 109.610 C 287.353 110.029,287.855 110.290,288.019 110.188 C 288.182 110.087,288.419 110.274,288.546 110.602 C 288.672 110.931,289.031 111.200,289.345 111.200 C 289.658 111.200,290.022 111.481,290.154 111.825 C 290.286 112.169,290.556 112.351,290.753 112.229 C 290.951 112.107,291.406 112.454,291.764 113.001 C 292.122 113.548,292.547 113.955,292.708 113.906 C 292.868 113.857,293.975 114.803,295.166 116.009 C 296.357 117.214,297.004 117.795,296.604 117.300 C 295.455 115.879,296.105 116.251,297.622 117.883 C 298.380 118.698,298.640 119.122,298.200 118.825 C 297.760 118.529,298.297 119.167,299.394 120.243 C 300.491 121.319,301.347 122.332,301.297 122.492 C 301.246 122.653,301.652 123.078,302.199 123.436 C 302.746 123.794,303.093 124.249,302.971 124.447 C 302.849 124.644,303.031 124.914,303.375 125.046 C 303.719 125.178,304.000 125.542,304.000 125.855 C 304.000 126.169,304.269 126.528,304.598 126.654 C 304.926 126.781,305.095 127.046,304.972 127.245 C 304.850 127.443,305.030 127.713,305.372 127.845 C 305.715 127.976,305.913 128.218,305.812 128.381 C 305.710 128.545,305.947 129.021,306.336 129.439 C 306.726 129.858,307.077 130.336,307.117 130.503 C 307.156 130.669,308.083 132.649,309.176 134.903 C 316.019 149.010,317.152 166.492,312.169 181.073 C 311.582 182.793,311.093 184.425,311.084 184.700 C 311.074 184.975,310.936 185.200,310.777 185.200 C 310.479 185.200,309.817 187.164,309.934 187.700 C 309.970 187.865,309.809 188.000,309.576 188.000 C 309.343 188.000,309.264 188.180,309.400 188.400 C 309.536 188.620,309.446 188.800,309.200 188.800 C 308.954 188.800,308.864 188.980,309.000 189.200 C 309.136 189.420,309.046 189.600,308.800 189.600 C 308.554 189.600,308.464 189.780,308.600 190.000 C 308.736 190.220,308.685 190.400,308.488 190.400 C 308.160 190.400,306.947 192.588,307.263 192.609 C 307.338 192.615,307.001 193.047,306.514 193.570 C 306.026 194.093,305.710 194.655,305.812 194.819 C 305.913 194.982,305.715 195.224,305.372 195.355 C 305.030 195.487,304.850 195.757,304.972 195.955 C 305.095 196.154,304.901 196.429,304.540 196.568 C 304.180 196.706,303.994 196.927,304.126 197.059 C 304.258 197.191,303.969 197.631,303.483 198.036 C 302.997 198.442,302.759 198.779,302.954 198.787 C 303.149 198.794,302.837 199.170,302.262 199.623 C 301.686 200.076,301.249 200.571,301.289 200.723 C 301.330 200.875,299.600 202.710,297.446 204.800 C 291.806 210.270,291.656 210.733,293.397 217.276 C 297.483 232.626,295.892 249.356,288.970 263.839 C 287.929 266.018,287.105 267.935,287.138 268.100 C 287.172 268.265,286.990 268.400,286.733 268.400 C 286.477 268.400,286.376 268.509,286.509 268.643 C 286.643 268.776,286.409 269.253,285.990 269.703 C 285.571 270.153,285.310 270.655,285.412 270.819 C 285.513 270.982,285.315 271.224,284.972 271.355 C 284.630 271.487,284.450 271.757,284.572 271.955 C 284.695 272.154,284.501 272.429,284.140 272.568 C 283.780 272.706,283.594 272.927,283.726 273.059 C 283.858 273.191,283.569 273.631,283.083 274.036 C 282.597 274.442,282.355 274.779,282.544 274.787 C 282.734 274.794,282.464 275.154,281.944 275.587 C 281.425 276.019,281.159 276.379,281.354 276.387 C 281.549 276.394,281.237 276.770,280.662 277.223 C 280.086 277.676,279.640 278.171,279.670 278.323 C 279.700 278.475,277.878 280.457,275.622 282.728 C 273.365 284.998,271.641 286.618,271.792 286.328 C 271.942 286.037,271.570 286.340,270.965 287.000 C 270.361 287.660,269.702 288.200,269.501 288.200 C 269.300 288.200,268.907 288.512,268.628 288.894 C 268.349 289.275,268.008 289.475,267.870 289.337 C 267.732 289.198,267.506 289.380,267.368 289.740 C 267.229 290.101,266.954 290.295,266.755 290.172 C 266.557 290.050,266.287 290.230,266.155 290.572 C 266.024 290.915,265.754 291.095,265.555 290.972 C 265.357 290.850,265.087 291.030,264.955 291.372 C 264.824 291.715,264.554 291.895,264.355 291.772 C 264.157 291.650,263.887 291.830,263.755 292.172 C 263.624 292.515,263.355 292.696,263.158 292.574 C 262.961 292.452,262.800 292.543,262.800 292.776 C 262.800 293.009,262.665 293.169,262.500 293.130 C 262.003 293.014,260.000 294.102,260.000 294.488 C 260.000 294.685,259.820 294.736,259.600 294.600 C 259.380 294.464,259.200 294.554,259.200 294.800 C 259.200 295.046,259.020 295.136,258.800 295.000 C 258.580 294.864,258.400 294.943,258.400 295.176 C 258.400 295.409,258.265 295.563,258.100 295.519 C 257.672 295.403,254.800 296.514,254.800 296.795 C 254.800 296.924,254.411 297.059,253.936 297.095 C 253.461 297.131,252.924 297.394,252.742 297.680 C 252.561 297.966,252.404 298.020,252.393 297.800 C 252.383 297.580,252.110 297.749,251.787 298.176 C 251.464 298.604,251.200 298.806,251.200 298.627 C 251.200 298.448,250.932 298.524,250.604 298.796 C 250.277 299.068,250.107 299.450,250.228 299.645 C 250.349 299.840,250.285 300.000,250.088 300.000 C 249.702 300.000,248.614 302.003,248.730 302.500 C 248.769 302.665,248.609 302.800,248.376 302.800 C 248.143 302.800,248.052 302.961,248.174 303.158 C 248.296 303.355,248.101 303.629,247.740 303.768 C 247.380 303.906,247.190 304.124,247.319 304.252 C 247.447 304.380,247.203 304.860,246.776 305.318 C 246.349 305.776,246.000 306.368,246.000 306.633 C 246.000 306.898,245.704 307.228,245.343 307.367 C 244.981 307.505,244.798 307.732,244.937 307.870 C 245.075 308.008,244.875 308.349,244.494 308.628 C 244.112 308.907,243.800 309.292,243.800 309.484 C 243.800 309.676,243.170 310.426,242.400 311.150 C 241.630 311.875,241.225 312.352,241.500 312.210 C 242.376 311.759,242.057 312.141,239.337 314.800 C 237.875 316.230,236.811 317.130,236.973 316.800 C 237.135 316.470,236.728 316.770,236.068 317.468 C 235.409 318.165,234.778 318.644,234.666 318.533 C 234.555 318.422,234.160 318.795,233.788 319.362 C 233.417 319.929,232.951 320.293,232.753 320.171 C 232.556 320.049,232.287 320.230,232.155 320.572 C 232.024 320.915,231.754 321.095,231.555 320.972 C 231.357 320.850,231.087 321.030,230.955 321.372 C 230.824 321.715,230.582 321.913,230.419 321.812 C 230.255 321.710,229.737 321.985,229.268 322.422 C 228.799 322.859,228.367 323.178,228.308 323.130 C 228.122 322.981,223.413 325.344,223.155 325.715 C 223.021 325.909,222.793 326.039,222.649 326.004 C 222.021 325.849,220.000 326.499,220.000 326.855 C 220.000 327.071,219.859 327.160,219.686 327.053 C 219.514 326.947,218.119 327.210,216.586 327.639 C 213.941 328.379,206.569 329.236,206.182 328.848 C 206.082 328.748,206.000 303.582,206.000 272.924 L 206.000 217.181 212.616 217.290 L 219.231 217.400 219.208 236.275 C 219.184 256.554,219.314 258.175,221.115 259.976 C 223.026 261.888,223.552 262.000,230.674 262.007 L 237.400 262.014 238.349 264.207 C 238.872 265.413,239.467 266.400,239.673 266.400 C 239.879 266.400,239.935 266.581,239.798 266.803 C 239.661 267.024,239.831 267.314,240.175 267.446 C 240.519 267.578,240.800 267.899,240.800 268.160 C 240.800 268.783,244.177 272.090,244.492 271.775 C 244.626 271.641,244.939 271.912,245.188 272.377 C 245.437 272.842,245.811 273.117,246.020 272.988 C 246.229 272.858,246.400 272.922,246.400 273.128 C 246.400 273.527,248.794 274.655,249.300 274.495 C 249.465 274.443,249.600 274.562,249.600 274.760 C 249.600 275.129,252.075 275.767,255.109 276.180 C 256.789 276.408,261.722 275.822,262.568 275.293 C 262.806 275.145,263.360 274.968,263.800 274.900 C 264.240 274.832,264.660 274.601,264.734 274.386 C 264.808 274.171,265.033 274.097,265.234 274.221 C 265.435 274.345,265.600 274.246,265.600 274.000 C 265.600 273.754,265.780 273.664,266.000 273.800 C 266.220 273.936,266.400 273.846,266.400 273.600 C 266.400 273.354,266.581 273.265,266.803 273.402 C 267.024 273.539,267.313 273.370,267.445 273.028 C 267.576 272.685,267.836 272.499,268.022 272.614 C 268.208 272.728,268.563 272.442,268.812 271.977 C 269.061 271.512,269.373 271.240,269.506 271.373 C 269.831 271.698,272.421 269.158,272.173 268.757 C 272.066 268.583,272.358 268.237,272.823 267.988 C 273.288 267.739,273.578 267.445,273.468 267.334 C 273.357 267.224,273.618 266.782,274.048 266.352 C 274.478 265.922,274.722 265.397,274.591 265.185 C 274.460 264.973,274.538 264.800,274.765 264.800 C 274.992 264.800,275.565 263.523,276.039 261.961 C 277.597 256.833,276.532 248.409,273.979 245.669 C 273.577 245.238,273.343 244.790,273.459 244.675 C 273.575 244.559,273.198 244.155,272.622 243.778 C 272.046 243.400,271.672 242.994,271.791 242.875 C 272.090 242.576,270.354 240.781,269.986 241.009 C 269.822 241.110,269.383 240.729,269.012 240.162 C 268.640 239.595,268.241 239.225,268.125 239.341 C 268.010 239.457,267.562 239.223,267.131 238.821 C 263.988 235.893,248.800 234.938,248.800 237.668 C 248.800 237.877,248.620 237.936,248.400 237.800 C 248.180 237.664,248.000 237.754,248.000 238.000 C 248.000 238.246,247.820 238.336,247.600 238.200 C 247.380 238.064,247.200 238.154,247.200 238.400 C 247.200 238.646,247.019 238.735,246.797 238.598 C 246.576 238.461,246.287 238.630,246.155 238.972 C 246.024 239.315,245.754 239.495,245.555 239.372 C 245.357 239.250,245.087 239.430,244.955 239.772 C 244.824 240.115,244.585 240.314,244.424 240.215 C 244.264 240.116,243.345 240.837,242.383 241.817 C 241.421 242.798,240.752 243.600,240.898 243.600 C 241.043 243.600,240.724 244.073,240.188 244.650 C 239.653 245.228,239.312 245.858,239.431 246.050 C 239.550 246.243,239.469 246.400,239.251 246.400 C 238.853 246.400,238.172 247.937,238.321 248.500 C 238.364 248.665,238.220 248.800,238.000 248.800 C 237.780 248.800,237.600 249.070,237.600 249.400 C 237.600 249.880,237.000 250.000,234.600 250.000 L 231.600 250.000 231.600 233.610 L 231.600 217.220 252.867 217.110 C 269.502 217.024,274.170 216.891,274.301 216.498 C 274.393 216.221,274.607 216.081,274.776 216.185 C 274.945 216.290,275.501 215.931,276.012 215.388 C 276.522 214.844,276.805 214.400,276.641 214.400 C 276.477 214.400,276.626 214.117,276.971 213.771 C 277.505 213.238,277.600 211.802,277.600 204.260 C 277.600 196.003,277.654 195.332,278.366 194.722 C 278.788 194.361,279.238 194.171,279.366 194.300 C 279.495 194.428,279.600 194.313,279.600 194.043 C 279.600 193.773,279.780 193.664,280.000 193.800 C 280.220 193.936,280.400 193.846,280.400 193.600 C 280.400 193.354,280.557 193.250,280.750 193.369 C 280.942 193.488,281.572 193.147,282.150 192.612 C 282.727 192.076,283.200 191.757,283.200 191.902 C 283.200 192.048,284.002 191.379,284.983 190.417 C 285.963 189.455,286.678 188.526,286.571 188.354 C 286.465 188.181,286.748 187.842,287.200 187.600 C 287.652 187.358,287.917 186.989,287.788 186.780 C 287.658 186.571,287.719 186.400,287.922 186.400 C 288.584 186.400,290.351 181.853,290.840 178.892 C 291.552 174.578,289.581 165.600,287.922 165.600 C 287.719 165.600,287.665 165.419,287.802 165.197 C 287.939 164.976,287.769 164.686,287.425 164.554 C 287.081 164.422,286.800 164.101,286.800 163.840 C 286.800 163.580,285.990 162.572,285.000 161.600 C 284.010 160.628,283.200 159.952,283.200 160.098 C 283.200 160.243,282.727 159.924,282.150 159.388 C 281.572 158.853,280.957 158.503,280.784 158.610 C 280.610 158.717,280.408 158.637,280.334 158.432 C 280.260 158.228,279.930 158.002,279.600 157.930 C 279.270 157.859,278.902 157.670,278.783 157.510 C 278.663 157.351,278.213 157.165,277.783 157.099 C 277.352 157.032,276.730 156.809,276.400 156.603 C 274.761 155.581,264.000 156.124,264.000 157.228 C 264.000 157.433,263.865 157.557,263.700 157.505 C 263.194 157.345,260.800 158.473,260.800 158.872 C 260.800 159.078,260.619 159.135,260.397 158.998 C 260.176 158.861,259.887 159.030,259.755 159.372 C 259.624 159.715,259.369 159.904,259.189 159.793 C 259.009 159.682,258.474 160.135,258.000 160.800 C 257.526 161.465,256.945 161.889,256.708 161.743 C 256.462 161.591,256.391 161.662,256.543 161.908 C 256.689 162.145,256.265 162.726,255.600 163.200 C 254.935 163.674,254.482 164.209,254.593 164.389 C 254.704 164.569,254.501 164.829,254.140 164.968 C 253.780 165.106,253.593 165.326,253.724 165.457 C 253.855 165.588,253.713 165.944,253.410 166.247 C 250.178 169.479,250.210 182.553,253.457 185.800 C 253.787 186.130,253.909 186.406,253.729 186.413 C 253.548 186.420,253.727 186.673,254.127 186.976 C 254.526 187.279,254.886 187.664,254.927 187.831 C 255.043 188.313,259.199 192.470,259.212 192.118 C 259.219 191.943,259.410 192.119,259.637 192.508 C 259.864 192.898,260.218 193.112,260.425 192.985 C 260.631 192.857,260.800 192.922,260.800 193.128 C 260.800 193.527,263.194 194.655,263.700 194.495 C 263.865 194.443,264.000 194.580,264.000 194.800 C 264.000 195.020,264.360 195.200,264.800 195.200 C 265.557 195.200,265.600 195.467,265.600 200.200 L 265.600 205.200 235.798 205.200 L 205.996 205.200 206.098 170.900 L 206.200 136.600 213.290 136.491 L 220.380 136.382 220.633 137.391 C 220.773 137.946,221.058 138.400,221.267 138.400 C 221.476 138.400,221.536 138.580,221.400 138.800 C 221.264 139.020,221.354 139.200,221.600 139.200 C 221.846 139.200,221.936 139.380,221.800 139.600 C 221.664 139.820,221.754 140.000,222.000 140.000 C 222.246 140.000,222.350 140.157,222.231 140.350 C 222.112 140.542,222.443 141.161,222.966 141.725 C 223.488 142.289,223.849 142.818,223.766 142.900 C 223.684 142.983,224.423 143.841,225.408 144.808 C 226.394 145.775,227.200 146.399,227.200 146.194 C 227.200 145.990,227.482 146.225,227.827 146.718 C 228.172 147.210,228.622 147.510,228.827 147.383 C 229.032 147.256,229.200 147.322,229.200 147.528 C 229.200 147.909,231.339 148.946,231.838 148.807 C 231.988 148.766,232.233 148.930,232.383 149.172 C 233.874 151.584,246.646 150.666,249.577 147.936 C 250.030 147.514,250.406 147.311,250.413 147.484 C 250.420 147.658,250.690 147.451,251.013 147.024 C 251.336 146.596,251.600 146.403,251.600 146.594 C 251.600 146.785,252.578 145.973,253.774 144.790 C 254.969 143.607,255.870 142.514,255.776 142.361 C 255.682 142.209,255.885 141.976,256.228 141.845 C 256.570 141.713,256.739 141.424,256.602 141.203 C 256.465 140.981,256.522 140.800,256.728 140.800 C 257.127 140.800,258.255 138.406,258.095 137.900 C 258.043 137.735,258.162 137.600,258.360 137.600 C 259.511 137.600,260.110 128.990,259.196 125.574 C 258.578 123.265,256.845 119.600,256.371 119.600 C 256.167 119.600,256.000 119.439,256.000 119.243 C 256.000 118.798,251.205 113.862,251.188 114.290 C 251.181 114.460,250.990 114.281,250.763 113.892 C 250.536 113.502,250.182 113.288,249.975 113.415 C 249.769 113.543,249.600 113.469,249.600 113.251 C 249.600 112.884,247.996 112.166,247.645 112.375 C 247.559 112.427,247.374 112.281,247.232 112.052 C 246.016 110.085,232.753 110.058,232.066 112.021 C 231.992 112.232,231.767 112.303,231.566 112.179 C 231.365 112.055,231.200 112.154,231.200 112.400 C 231.200 112.646,231.020 112.736,230.800 112.600 C 230.580 112.464,230.400 112.554,230.400 112.800 C 230.400 113.046,230.227 113.140,230.015 113.009 C 229.803 112.878,229.263 113.137,228.815 113.585 C 228.367 114.033,227.906 114.400,227.791 114.400 C 227.422 114.400,223.099 118.800,223.456 118.812 C 223.645 118.819,223.481 119.010,223.092 119.237 C 222.702 119.464,222.488 119.818,222.615 120.025 C 222.743 120.231,222.684 120.400,222.484 120.400 C 222.092 120.400,220.666 123.314,220.667 124.113 C 220.667 124.482,218.893 124.572,213.334 124.483 L 206.000 124.366 206.000 97.983 L 206.000 71.600 208.700 71.602 C 210.185 71.602,213.020 71.867,215.000 72.189 M122.221 108.766 C 122.069 109.012,121.796 109.121,121.614 109.009 C 121.433 108.896,121.176 109.085,121.045 109.428 C 120.905 109.791,120.596 109.930,120.303 109.761 C 120.026 109.602,119.926 109.612,120.081 109.783 C 120.235 109.955,120.100 110.357,119.781 110.676 C 118.579 111.878,119.919 116.591,121.232 115.780 C 121.434 115.655,121.600 115.743,121.600 115.976 C 121.600 116.675,124.711 116.487,125.116 115.764 C 125.312 115.414,125.591 115.144,125.736 115.164 C 125.881 115.184,125.994 115.104,125.986 114.986 C 125.978 114.868,126.266 114.477,126.627 114.116 C 127.501 113.242,127.127 110.945,125.912 109.731 C 124.857 108.677,122.635 108.096,122.221 108.766 M138.080 108.880 C 137.816 109.144,137.600 109.252,137.600 109.120 C 137.600 108.987,137.060 109.383,136.400 110.000 C 134.649 111.636,135.408 116.908,137.232 115.780 C 137.434 115.655,137.600 115.743,137.600 115.976 C 137.600 116.629,140.265 116.478,140.957 115.786 C 141.295 115.448,141.713 115.133,141.886 115.086 C 142.059 115.039,142.155 114.865,142.100 114.700 C 142.045 114.535,142.166 114.400,142.368 114.400 C 142.967 114.400,143.266 112.226,142.826 111.070 C 142.115 109.197,139.137 107.823,138.080 108.880 M243.100 122.867 C 243.375 122.903,243.600 123.083,243.600 123.267 C 243.600 123.450,243.766 123.600,243.969 123.600 C 244.172 123.600,244.878 124.140,245.538 124.800 C 246.198 125.460,246.658 126.000,246.559 126.000 C 246.460 126.000,246.669 126.559,247.022 127.242 C 247.501 128.169,247.611 129.161,247.456 131.142 C 247.182 134.638,247.159 134.730,246.508 134.980 C 246.201 135.098,246.046 135.352,246.165 135.544 C 246.284 135.736,246.025 136.215,245.591 136.609 C 245.156 137.002,244.794 137.161,244.787 136.962 C 244.780 136.763,244.555 136.888,244.287 137.240 C 244.019 137.592,243.620 137.912,243.400 137.951 C 243.180 137.991,242.305 138.210,241.455 138.439 C 240.576 138.676,239.197 138.725,238.255 138.552 C 237.345 138.386,236.465 138.284,236.300 138.325 C 236.135 138.366,236.000 138.190,236.000 137.933 C 236.000 137.677,235.888 137.579,235.750 137.716 C 235.613 137.854,235.149 137.569,234.720 137.083 C 234.290 136.597,234.069 136.470,234.228 136.800 C 234.468 137.297,234.422 137.311,233.959 136.880 C 233.651 136.594,233.395 136.234,233.390 136.080 C 233.384 135.926,233.024 135.268,232.590 134.619 C 231.435 132.891,231.524 126.668,232.710 126.213 C 233.007 126.099,233.183 125.869,233.100 125.703 C 232.959 125.422,234.281 123.947,234.908 123.684 C 235.061 123.620,235.774 123.302,236.493 122.977 C 237.650 122.455,239.756 122.420,243.100 122.867 M112.880 125.208 C 112.154 125.650,111.670 126.190,111.804 126.406 C 111.938 126.623,111.857 126.800,111.624 126.800 C 110.892 126.800,111.169 129.737,112.000 130.800 C 112.430 131.350,112.786 131.652,112.791 131.471 C 112.796 131.291,113.083 131.426,113.429 131.771 C 114.120 132.462,116.400 132.638,116.400 132.000 C 116.400 131.780,116.558 131.645,116.752 131.700 C 116.945 131.755,117.575 131.296,118.152 130.679 C 121.126 127.500,116.683 122.889,112.880 125.208 M104.369 141.569 C 101.049 144.890,105.720 150.146,109.498 147.341 C 111.528 145.834,111.327 140.646,109.257 141.100 C 109.005 141.155,108.800 141.020,108.800 140.800 C 108.800 139.826,105.547 140.391,104.369 141.569 M98.000 156.275 C 96.083 157.045,94.050 161.600,95.624 161.600 C 95.857 161.600,95.951 161.756,95.833 161.947 C 95.561 162.387,96.973 163.694,97.332 163.334 C 97.480 163.187,97.600 163.277,97.600 163.533 C 97.600 163.811,98.248 164.000,99.200 164.000 C 100.080 164.000,100.800 163.809,100.800 163.576 C 100.800 163.343,100.977 163.262,101.194 163.396 C 101.701 163.710,103.197 161.269,103.199 160.124 C 103.199 159.642,103.017 159.134,102.793 158.996 C 102.570 158.858,102.474 158.603,102.581 158.431 C 103.196 157.436,99.471 155.683,98.000 156.275 M274.172 168.563 C 274.965 168.894,275.746 169.186,275.907 169.211 C 276.499 169.304,277.575 170.518,277.365 170.856 C 277.246 171.048,277.430 171.313,277.772 171.445 C 278.115 171.576,278.296 171.845,278.174 172.042 C 278.052 172.239,278.104 172.400,278.289 172.400 C 278.665 172.400,278.931 173.891,278.931 176.000 C 278.931 178.109,278.665 179.600,278.289 179.600 C 278.104 179.600,278.052 179.761,278.174 179.958 C 278.296 180.155,278.115 180.424,277.772 180.555 C 277.430 180.687,277.246 180.952,277.365 181.144 C 277.484 181.336,277.194 181.832,276.722 182.247 C 276.249 182.661,276.009 182.751,276.188 182.446 C 276.368 182.141,275.934 182.321,275.225 182.846 C 273.843 183.868,267.600 184.449,267.600 183.555 C 267.600 183.334,267.420 183.264,267.200 183.400 C 266.980 183.536,266.800 183.457,266.800 183.224 C 266.800 182.991,266.628 182.800,266.418 182.800 C 266.017 182.800,263.822 180.744,263.856 180.400 C 263.867 180.290,263.634 179.621,263.338 178.913 C 262.635 177.231,262.654 174.724,263.383 172.980 C 263.703 172.213,263.979 171.504,263.995 171.405 C 264.069 170.963,266.231 168.976,266.500 169.104 C 266.665 169.183,266.800 169.046,266.800 168.800 C 266.800 168.554,266.980 168.464,267.200 168.600 C 267.420 168.736,267.600 168.685,267.600 168.487 C 267.600 167.858,272.624 167.916,274.172 168.563 M105.429 172.629 C 105.083 172.974,104.796 173.109,104.791 172.929 C 104.762 171.839,103.218 174.853,103.218 176.000 C 103.218 177.147,104.762 180.161,104.791 179.071 C 104.796 178.891,105.083 179.026,105.429 179.371 C 107.062 181.005,111.200 178.588,111.200 176.000 C 111.200 173.412,107.062 170.995,105.429 172.629 M122.000 203.881 C 117.873 205.495,118.763 211.600,123.125 211.600 C 124.440 211.600,127.488 210.063,126.271 210.013 C 126.091 210.006,126.226 209.717,126.571 209.371 C 128.693 207.249,124.934 202.734,122.000 203.881 M113.429 220.229 C 113.083 220.574,112.796 220.709,112.791 220.529 C 112.786 220.348,112.430 220.650,112.000 221.200 C 109.961 223.807,111.940 227.600,115.340 227.600 C 116.718 227.600,119.200 225.041,119.200 223.619 C 119.200 222.529,117.107 219.827,116.631 220.303 C 116.504 220.429,116.400 220.323,116.400 220.067 C 116.400 219.378,114.157 219.500,113.429 220.229 M121.600 236.024 C 121.600 236.257,121.434 236.345,121.232 236.220 C 121.030 236.095,120.490 236.468,120.032 237.050 C 117.183 240.672,122.561 245.621,125.812 242.369 C 127.114 241.068,127.529 238.786,126.627 237.884 C 126.266 237.523,125.978 237.132,125.986 237.014 C 125.994 236.896,125.881 236.816,125.736 236.836 C 125.591 236.856,125.312 236.586,125.116 236.236 C 124.711 235.513,121.600 235.325,121.600 236.024 M260.020 248.610 C 260.669 248.946,261.200 249.141,261.200 249.045 C 261.200 248.948,261.792 249.438,262.515 250.134 C 263.239 250.830,263.777 251.520,263.712 251.668 C 263.646 251.815,263.831 252.175,264.123 252.468 C 264.764 253.110,265.001 257.419,264.473 258.809 C 264.265 259.354,264.079 259.940,264.058 260.112 C 263.821 262.091,257.936 264.662,255.106 264.024 C 254.300 263.842,253.541 263.792,253.420 263.913 C 253.299 264.034,253.200 263.913,253.200 263.643 C 253.200 263.373,253.039 263.252,252.842 263.374 C 252.645 263.496,252.371 263.301,252.232 262.940 C 252.094 262.580,251.865 262.402,251.723 262.544 C 251.369 262.898,249.966 261.579,250.235 261.144 C 250.354 260.952,250.170 260.687,249.828 260.555 C 249.485 260.424,249.304 260.155,249.426 259.958 C 249.548 259.761,249.427 259.600,249.157 259.600 C 248.887 259.600,248.766 259.501,248.886 259.380 C 249.007 259.259,248.946 258.449,248.751 257.580 C 248.335 255.729,248.794 253.269,249.849 251.692 C 250.251 251.091,250.584 250.465,250.590 250.300 C 250.595 250.135,250.716 250.045,250.858 250.100 C 251.000 250.155,251.454 249.894,251.866 249.521 C 253.596 247.955,257.837 247.482,260.020 248.610 M114.200 251.497 C 111.426 252.173,110.350 256.012,112.369 258.031 C 113.547 259.209,116.800 259.774,116.800 258.800 C 116.800 258.580,117.005 258.445,117.257 258.500 C 117.508 258.555,118.075 257.997,118.517 257.259 C 120.231 254.401,117.460 250.703,114.200 251.497 M121.429 267.829 C 121.083 268.174,120.796 268.309,120.791 268.129 C 120.786 267.948,120.430 268.250,120.000 268.800 C 119.169 269.863,118.892 272.800,119.624 272.800 C 119.857 272.800,119.951 272.956,119.833 273.147 C 119.456 273.757,121.089 274.861,122.687 275.076 C 125.121 275.402,128.353 271.686,126.900 270.233 C 126.735 270.068,126.597 269.813,126.593 269.667 C 126.580 269.140,125.050 267.645,124.729 267.844 C 124.548 267.956,124.400 267.857,124.400 267.624 C 124.400 266.968,122.133 267.124,121.429 267.829 M137.429 267.829 C 137.083 268.174,136.800 268.332,136.800 268.180 C 136.800 268.027,136.532 268.124,136.204 268.396 C 135.877 268.668,135.707 269.050,135.828 269.245 C 135.949 269.440,135.857 269.600,135.624 269.600 C 135.391 269.600,135.200 270.320,135.200 271.200 C 135.200 272.080,135.391 272.800,135.624 272.800 C 135.857 272.800,135.951 272.956,135.833 273.147 C 134.743 274.910,139.739 275.683,141.572 274.034 C 142.327 273.355,142.800 272.800,142.623 272.800 C 142.447 272.800,142.524 272.532,142.796 272.205 C 143.655 271.169,142.085 267.800,140.743 267.800 C 140.591 267.800,140.332 267.665,140.167 267.500 C 139.651 266.984,138.085 267.172,137.429 267.829 M170.226 299.128 C 167.378 299.713,166.284 303.546,168.369 305.631 C 169.772 307.034,172.481 307.300,173.152 306.100 C 173.367 305.715,173.691 305.400,173.872 305.400 C 174.052 305.400,174.155 305.265,174.100 305.100 C 174.045 304.935,174.210 304.800,174.467 304.800 C 174.723 304.800,174.815 304.682,174.670 304.537 C 174.525 304.392,174.593 304.049,174.821 303.775 C 175.310 303.186,174.901 301.200,174.290 301.200 C 174.057 301.200,173.985 301.082,174.130 300.937 C 174.492 300.575,173.595 299.556,173.155 299.828 C 172.960 299.949,172.800 299.878,172.800 299.670 C 172.800 299.219,171.309 298.906,170.226 299.128 M186.100 299.120 C 185.605 299.195,185.200 299.423,185.200 299.628 C 185.200 299.833,184.930 300.000,184.600 300.000 C 184.270 300.000,184.000 300.270,184.000 300.600 C 184.000 300.930,183.820 301.200,183.600 301.200 C 183.380 301.200,183.200 301.934,183.200 302.831 C 183.200 306.470,187.229 308.138,189.680 305.515 C 190.983 304.120,191.336 301.786,190.340 301.154 C 190.043 300.966,189.957 300.809,190.149 300.806 C 190.341 300.803,190.276 300.532,190.004 300.204 C 189.732 299.877,189.350 299.707,189.155 299.828 C 188.960 299.949,188.800 299.878,188.800 299.670 C 188.800 299.223,187.364 298.930,186.100 299.120 M177.110 315.424 C 175.745 316.164,175.200 317.162,175.200 318.920 C 175.200 320.357,176.585 322.580,177.232 322.180 C 177.434 322.055,177.600 322.143,177.600 322.376 C 177.600 322.609,178.230 322.800,179.000 322.800 C 179.770 322.800,180.400 322.620,180.400 322.400 C 180.400 322.180,180.538 322.045,180.708 322.100 C 181.460 322.344,182.879 320.406,182.917 319.083 C 183.008 315.842,179.923 313.897,177.110 315.424 " stroke="none" fill="#000000" fill-rule="evenodd"></path></g></svg>